<svg width="153" height="30" viewBox="0 0 153 30" fill="none" xmlns="http://www.w3.org/2000/svg">
<g clip-path="url(#clip0_2204_3387)">
<path d="M16.8234 29.4567C11.3396 27.4704 5.70868 26.8829 0 26.5025V1.37463C0.177608 1.57116 0.299517 1.69097 0.40461 1.82443C1.46185 3.16017 2.52855 4.4875 3.55742 5.84321C3.75709 6.10594 3.90422 6.48323 3.90528 6.80902C3.92629 11.7179 3.92629 16.6269 3.90423 21.5358C3.90107 22.1285 3.98935 22.3839 4.67666 22.4585C7.96084 22.82 11.2313 23.2793 14.361 24.4237C14.7593 24.5698 14.9716 24.7884 15.1209 25.1762C15.6558 26.5761 16.2254 27.9622 16.8234 29.4567Z" fill="#F6B40A"/>
<path d="M39.3012 1.36411V26.5025C33.6114 26.885 27.9837 27.4599 22.5293 29.4472C22.586 29.257 22.6218 29.092 22.6838 28.9385C23.1882 27.6743 23.7105 26.4174 24.1982 25.1468C24.339 24.7789 24.545 24.5719 24.9181 24.4342C27.4918 23.4894 30.1706 23.027 32.8716 22.6603C33.5063 22.5741 34.1421 22.4585 34.7801 22.4364C35.2908 22.4196 35.3969 22.2147 35.3959 21.7428C35.3801 16.8328 35.3927 11.9239 35.377 7.01393C35.3749 6.50423 35.4989 6.10382 35.8247 5.70657C36.863 4.43494 37.8666 3.13283 38.8861 1.84438C38.9943 1.70671 39.1141 1.57955 39.3012 1.36411Z" fill="#F6B40A"/>
<path d="M17.4908 16.8644C17.4824 17.7503 17.9259 18.3683 18.6962 18.7928C18.8823 18.8948 19.1156 19.1365 19.1166 19.3152C19.1408 22.7811 19.1345 26.2471 19.1313 29.7131C19.1313 29.7625 19.1019 29.8129 19.042 30C18.5806 28.8587 18.1624 27.834 17.7525 26.8062C16.2822 23.129 14.8088 19.4518 13.3575 15.7661C13.2524 15.4971 13.2324 15.1387 13.3102 14.8613C13.7726 13.225 14.2623 11.5971 14.7741 9.97549C14.8982 9.58455 14.8277 9.37226 14.4935 9.13054C11.8452 7.21469 8.88365 5.9935 5.76027 5.11176C5.46076 5.02769 5.14653 4.8196 4.94895 4.57894C3.90748 3.30941 2.90068 2.0115 1.88337 0.722007C1.73729 0.537042 1.60067 0.344721 1.40625 0.0830383C6.42236 0.360485 10.913 1.90746 15.0295 4.56107C16.2738 5.36294 17.4614 6.25308 18.6815 7.09278C19.0031 7.31452 19.1502 7.56885 19.145 7.98607C19.1219 10.089 19.1271 12.193 19.1418 14.2969C19.145 14.6585 19.0662 14.8571 18.6983 15.0168C17.9164 15.3563 17.4992 16.0047 17.4908 16.8644Z" fill="#F6B40A"/>
<path d="M37.8696 0.137673C37.7036 0.353114 37.5386 0.569607 37.3705 0.783998C36.3658 2.05878 35.3716 3.34197 34.3448 4.59889C34.1588 4.8259 33.8635 5.02347 33.5808 5.10229C30.4732 5.97142 27.5326 7.19155 24.8843 9.06852C24.4923 9.34597 24.4019 9.59084 24.5522 10.0564C25.0693 11.6559 25.539 13.2702 26.0046 14.8844C26.0708 15.1146 26.0929 15.4099 26.0077 15.6253C24.1413 20.3314 22.257 25.0301 20.3747 29.7299C20.3548 29.7814 20.3148 29.8266 20.2308 29.959C20.2003 29.7572 20.1677 29.6374 20.1677 29.5176C20.1645 26.1704 20.1708 22.8232 20.1582 19.477C20.1561 19.1092 20.2518 18.921 20.6112 18.7613C21.3878 18.4145 21.8061 17.7692 21.8135 16.9074C21.8198 16.0173 21.391 15.3636 20.5891 15.0074C20.2539 14.8581 20.1561 14.6858 20.1582 14.34C20.1719 12.1961 20.1572 10.0511 20.1782 7.90724C20.1803 7.68234 20.2907 7.37652 20.4578 7.2462C24.3515 4.22056 28.5237 1.72669 33.421 0.698872C34.864 0.395152 36.3363 0.229104 37.795 0C37.8192 0.0462412 37.8444 0.0914314 37.8696 0.137673Z" fill="#F6B40A"/>
</g>
<path d="M54.2208 25.224C52.8954 25.224 51.7568 24.944 50.8048 24.384C49.8528 23.824 49.1248 22.9747 48.6208 21.836C48.1168 20.6787 47.8648 19.2227 47.8648 17.468C47.8648 15.6947 48.1261 14.2387 48.6488 13.1C49.1901 11.9613 49.9368 11.112 50.8888 10.552C51.8408 9.992 52.9514 9.712 54.2208 9.712C55.6394 9.712 56.9088 10.0293 58.0288 10.664C59.1674 11.2987 60.0634 12.1947 60.7168 13.352C61.3888 14.5093 61.7248 15.8813 61.7248 17.468C61.7248 19.036 61.3888 20.3987 60.7168 21.556C60.0634 22.7133 59.1674 23.6187 58.0288 24.272C56.9088 24.9067 55.6394 25.224 54.2208 25.224ZM45.3168 25V4.224H49.6848V12.988L49.4048 17.44L49.4888 21.92V25H45.3168ZM53.4648 21.64C54.1928 21.64 54.8368 21.472 55.3968 21.136C55.9754 20.8 56.4328 20.324 56.7688 19.708C57.1234 19.0733 57.3008 18.3267 57.3008 17.468C57.3008 16.5907 57.1234 15.844 56.7688 15.228C56.4328 14.612 55.9754 14.136 55.3968 13.8C54.8368 13.464 54.1928 13.296 53.4648 13.296C52.7368 13.296 52.0834 13.464 51.5048 13.8C50.9261 14.136 50.4688 14.612 50.1328 15.228C49.7968 15.844 49.6288 16.5907 49.6288 17.468C49.6288 18.3267 49.7968 19.0733 50.1328 19.708C50.4688 20.324 50.9261 20.8 51.5048 21.136C52.0834 21.472 52.7368 21.64 53.4648 21.64ZM71.0048 25.224C69.7541 25.224 68.6341 24.9813 67.6448 24.496C66.6741 24.0107 65.9181 23.2733 65.3768 22.284C64.8355 21.276 64.5648 19.9973 64.5648 18.448V9.936H68.9328V17.804C68.9328 19.0547 69.1941 19.9787 69.7168 20.576C70.2581 21.1547 71.0141 21.444 71.9848 21.444C72.6568 21.444 73.2541 21.304 73.7768 21.024C74.2995 20.7253 74.7101 20.2773 75.0088 19.68C75.3075 19.064 75.4568 18.2987 75.4568 17.384V9.936H79.8248V25H75.6808V20.856L76.4368 22.06C75.9328 23.1053 75.1861 23.8987 74.1968 24.44C73.2261 24.9627 72.1621 25.224 71.0048 25.224ZM87.4835 21.92L87.5955 16.6L94.6235 9.936H99.8315L93.0835 16.796L90.8155 18.644L87.4835 21.92ZM83.8715 25V4.224H88.2395V25H83.8715ZM95.0995 25L90.0035 18.672L92.7475 15.284L100.391 25H95.0995ZM102.356 25V9.936H106.724V25H102.356ZM104.54 7.836C103.737 7.836 103.084 7.60267 102.58 7.136C102.076 6.66933 101.824 6.09067 101.824 5.4C101.824 4.70933 102.076 4.13067 102.58 3.664C103.084 3.19733 103.737 2.964 104.54 2.964C105.343 2.964 105.996 3.188 106.5 3.636C107.004 4.06533 107.256 4.62533 107.256 5.316C107.256 6.044 107.004 6.65067 106.5 7.136C106.015 7.60267 105.361 7.836 104.54 7.836ZM112.43 25.224C111.683 25.224 111.039 24.972 110.498 24.468C109.975 23.9453 109.714 23.2827 109.714 22.48C109.714 21.6773 109.975 21.0333 110.498 20.548C111.039 20.044 111.683 19.792 112.43 19.792C113.195 19.792 113.839 20.044 114.362 20.548C114.884 21.0333 115.146 21.6773 115.146 22.48C115.146 23.2827 114.884 23.9453 114.362 24.468C113.839 24.972 113.195 25.224 112.43 25.224ZM127.619 25V22.06L127.339 21.416V16.152C127.339 15.2187 127.05 14.4907 126.471 13.968C125.911 13.4453 125.043 13.184 123.867 13.184C123.065 13.184 122.271 13.3147 121.487 13.576C120.722 13.8187 120.069 14.1547 119.527 14.584L117.959 11.532C118.781 10.9533 119.77 10.5053 120.927 10.188C122.085 9.87067 123.261 9.712 124.455 9.712C126.751 9.712 128.534 10.2533 129.803 11.336C131.073 12.4187 131.707 14.108 131.707 16.404V25H127.619ZM123.027 25.224C121.851 25.224 120.843 25.028 120.003 24.636C119.163 24.2253 118.519 23.6747 118.071 22.984C117.623 22.2933 117.399 21.5187 117.399 20.66C117.399 19.764 117.614 18.98 118.043 18.308C118.491 17.636 119.191 17.1133 120.143 16.74C121.095 16.348 122.337 16.152 123.867 16.152H127.871V18.7H124.343C123.317 18.7 122.607 18.868 122.215 19.204C121.842 19.54 121.655 19.96 121.655 20.464C121.655 21.024 121.87 21.472 122.299 21.808C122.747 22.1253 123.354 22.284 124.119 22.284C124.847 22.284 125.501 22.116 126.079 21.78C126.658 21.4253 127.078 20.912 127.339 20.24L128.011 22.256C127.694 23.2267 127.115 23.964 126.275 24.468C125.435 24.972 124.353 25.224 123.027 25.224ZM142.938 25.224C141.333 25.224 139.905 24.888 138.654 24.216C137.422 23.544 136.442 22.6293 135.714 21.472C135.005 20.296 134.65 18.9613 134.65 17.468C134.65 15.956 135.005 14.6213 135.714 13.464C136.442 12.288 137.422 11.3733 138.654 10.72C139.905 10.048 141.333 9.712 142.938 9.712C144.525 9.712 145.943 10.048 147.194 10.72C148.445 11.3733 149.425 12.2787 150.134 13.436C150.843 14.5933 151.198 15.9373 151.198 17.468C151.198 18.9613 150.843 20.296 150.134 21.472C149.425 22.6293 148.445 23.544 147.194 24.216C145.943 24.888 144.525 25.224 142.938 25.224ZM142.938 21.64C143.666 21.64 144.319 21.472 144.898 21.136C145.477 20.8 145.934 20.324 146.27 19.708C146.606 19.0733 146.774 18.3267 146.774 17.468C146.774 16.5907 146.606 15.844 146.27 15.228C145.934 14.612 145.477 14.136 144.898 13.8C144.319 13.464 143.666 13.296 142.938 13.296C142.21 13.296 141.557 13.464 140.978 13.8C140.399 14.136 139.933 14.612 139.578 15.228C139.242 15.844 139.074 16.5907 139.074 17.468C139.074 18.3267 139.242 19.0733 139.578 19.708C139.933 20.324 140.399 20.8 140.978 21.136C141.557 21.472 142.21 21.64 142.938 21.64Z" fill="white"/>
<defs>
<clipPath id="clip0_2204_3387">
<rect width="39.3008" height="30" fill="white"/>
</clipPath>
</defs>
</svg>
